<svg width="32" height="25" viewBox="0 0 32 25" fill="none" xmlns="http://www.w3.org/2000/svg">
<path d="M29.3333 0.181641H9.33333C8.41333 0.181641 7.69333 0.648308 7.21333 1.35497L0 12.1816L7.21333 22.995C7.69333 23.7016 8.41333 24.1816 9.33333 24.1816H29.3333C30.8 24.1816 32 22.9816 32 21.515V2.84831C32 1.38164 30.8 0.181641 29.3333 0.181641ZM29.3333 21.515H9.42667L3.2 12.1816L9.41333 2.84831H29.3333V21.515ZM13.88 18.8483L18.6667 14.0616L23.4533 18.8483L25.3333 16.9683L20.5467 12.1816L25.3333 7.39497L23.4533 5.51497L18.6667 10.3016L13.88 5.51497L12 7.39497L16.7867 12.1816L12 16.9683L13.88 18.8483Z" fill="#367CB3"/>
</svg>
