<svg width="24" height="24" viewBox="0 0 24 24" fill="none" xmlns="http://www.w3.org/2000/svg">
<path d="M2.3375 7.95849L2.33412 7.95512C2.15103 7.77212 1.85431 7.77212 1.67122 7.95512C1.48817 8.13816 1.48817 8.43497 1.67122 8.61801L1.67464 8.62139C1.76619 8.71289 1.88614 8.75868 2.00609 8.75868C2.12605 8.75868 2.246 8.71289 2.33754 8.62139C2.52054 8.43839 2.52054 8.14158 2.3375 7.95849Z" fill="black"/>
<path d="M16.4975 1.39994C16.3144 1.21695 16.0176 1.21695 15.8346 1.39994C15.6515 1.58299 15.6515 1.8798 15.8346 2.06285L15.8374 2.06561C15.9285 2.15678 16.0476 2.2022 16.1668 2.2022C16.2868 2.2022 16.407 2.15608 16.4989 2.0642C16.6819 1.88116 16.6805 1.58294 16.4975 1.39994Z" fill="black"/>
<path d="M22.6008 15.837C22.4178 15.654 22.1211 15.654 21.938 15.837L21.9352 15.8398C21.7521 16.0228 21.7535 16.3182 21.9366 16.5012C22.0277 16.5924 22.1475 16.6378 22.2674 16.6378C22.3881 16.6378 22.509 16.5917 22.6009 16.4998C22.7839 16.3169 22.7839 16.02 22.6008 15.837Z" fill="black"/>
</svg>
