<svg width="20" height="24" viewBox="0 0 20 24" fill="none" xmlns="http://www.w3.org/2000/svg">
<path d="M16.7993 24H2.3999C1.07447 24 0 22.9255 0 21.6001V2.40094C0 1.07552 1.07447 0.00104572 2.3999 0.00104572H10.7995C10.8103 -0.000348574 10.8212 -0.000348574 10.8319 0.00104572H10.8391C10.8505 0.00459524 10.8621 0.00700704 10.8739 0.00824541C10.9797 0.015029 11.0842 0.035602 11.1847 0.0694427H11.2027H11.2207H11.2351C11.2572 0.084953 11.2781 0.102207 11.2975 0.12104C11.4282 0.179146 11.5474 0.260456 11.6491 0.36103L18.8488 7.56072C18.9494 7.66246 19.0307 7.78157 19.0888 7.9123C19.0996 7.9387 19.108 7.9639 19.1164 7.9915L19.1284 8.0251C19.1619 8.12516 19.1816 8.2293 19.1872 8.33468C19.1882 8.34664 19.191 8.35837 19.1956 8.36948V8.37668C19.1975 8.38455 19.1987 8.39258 19.1992 8.40068V21.6001C19.1992 22.2366 18.9463 22.847 18.4963 23.2971C18.0462 23.7472 17.4358 24 16.7993 24ZM13.8498 14.4004C13.3172 14.3731 12.8077 14.6198 12.4987 15.0544C12.1589 15.6115 11.9981 16.2594 12.0379 16.9107V17.9619C12.0041 18.6059 12.1805 19.2435 12.5407 19.7786C12.873 20.1961 13.3864 20.4276 13.9194 20.4002C14.245 20.4036 14.568 20.3407 14.8686 20.2154L14.8938 20.2046C15.1698 20.0826 15.4119 19.8952 15.5993 19.6586V17.2479H13.8366V18.1383H14.5566V19.2098L14.4654 19.2818C14.319 19.3804 14.1449 19.4296 13.9686 19.4222C13.6891 19.4419 13.4223 19.3027 13.2786 19.0622C13.1166 18.6971 13.0454 18.2981 13.071 17.8995V16.8399C13.0515 16.4597 13.1192 16.08 13.269 15.73C13.3848 15.5032 13.6232 15.3659 13.8774 15.3796C14.0695 15.3641 14.2576 15.4401 14.385 15.5848C14.5202 15.8145 14.5907 16.0766 14.589 16.3431H15.5993C15.603 15.8114 15.4299 15.2935 15.1073 14.8708C14.7771 14.5385 14.3183 14.3667 13.851 14.4004H13.8498ZM8.74042 16.4955L10.2512 20.3198H11.2795V14.4808H10.2536V18.3146L8.73802 14.4808H7.70366V20.3198H8.73802V16.4955H8.74042ZM3.59984 14.4808V20.3198H4.6342V18.2667H5.32417C5.78988 18.291 6.24273 18.1093 6.56251 17.7699C6.87673 17.3902 7.03651 16.9061 7.01009 16.4139C7.03192 15.9087 6.8704 15.4127 6.55531 15.0172C6.25644 14.6607 5.80939 14.4627 5.34457 14.4808H3.59984ZM10.7995 2.40094V8.40068H16.7993L10.7995 2.40094ZM5.34457 17.2803H4.6342V15.4624H5.35417C5.53883 15.4654 5.70796 15.5664 5.79815 15.7276C5.91835 15.9382 5.9758 16.1789 5.96374 16.4211C5.97829 16.6468 5.92163 16.8713 5.80175 17.0631C5.6951 17.2072 5.52364 17.2887 5.34457 17.2803Z" fill="#367CB3"/>
</svg>
