<svg width="96" height="16" viewBox="0 0 96 16" fill="none" xmlns="http://www.w3.org/2000/svg">
<path d="M76 6.09684L70.248 5.57474L68 0L65.752 5.58316L60 6.09684L64.368 10.08L63.056 16L68 12.8589L72.944 16L71.64 10.08L76 6.09684ZM68 11.2842V3.45263L69.368 6.85474L72.872 7.17474L70.216 9.6L71.016 13.2042L68 11.2842Z" fill="#E6E039"/>
<path d="M8 12.8589L12.944 16L11.632 10.08L16 6.09684L10.248 5.58316L8 0L5.752 5.58316L0 6.09684L4.368 10.08L3.056 16L8 12.8589Z" fill="#E6E039"/>
<path d="M28 12.8589L32.944 16L31.632 10.08L36 6.09684L30.248 5.58316L28 0L25.752 5.58316L20 6.09684L24.368 10.08L23.056 16L28 12.8589Z" fill="#E6E039"/>
<path d="M48 12.8589L52.944 16L51.632 10.08L56 6.09684L50.248 5.58316L48 0L45.752 5.58316L40 6.09684L44.368 10.08L43.056 16L48 12.8589Z" fill="#E6E039"/>
<path d="M96 6.09684L90.248 5.57474L88 0L85.752 5.58316L80 6.09684L84.368 10.08L83.056 16L88 12.8589L92.944 16L91.64 10.08L96 6.09684ZM88 11.2842L84.992 13.1958L85.792 9.59158L83.136 7.16632L86.64 6.84632L88 3.45263L89.368 6.85474L92.872 7.17474L90.216 9.6L91.016 13.2042L88 11.2842Z" fill="#E6E039"/>
</svg>
