<svg width="34" height="34" viewBox="0 0 34 34" fill="none" xmlns="http://www.w3.org/2000/svg">
<path d="M16.8112 0C7.52214 0 0 7.53896 0 16.828C0 26.1171 7.52214 33.6561 16.8112 33.6561C26.1171 33.6561 33.6561 26.1171 33.6561 16.828C33.6561 7.53896 26.1171 0 16.8112 0ZM28.4731 10.0968H23.5088C22.9703 7.99332 22.1962 5.97396 21.1865 4.10604C24.2829 5.16621 26.8576 7.3202 28.4731 10.0968ZM16.828 3.43292C18.2248 5.45229 19.3186 7.69042 20.0422 10.0968H13.6139C14.3375 7.69042 15.4313 5.45229 16.828 3.43292ZM3.80314 20.1937C3.53389 19.1167 3.36561 17.9892 3.36561 16.828C3.36561 15.6669 3.53389 14.5394 3.80314 13.4624H9.49102C9.35639 14.5731 9.25542 15.6837 9.25542 16.828C9.25542 17.9724 9.35639 19.083 9.49102 20.1937H3.80314ZM5.18304 23.5593H10.1473C10.6858 25.6628 11.4599 27.6821 12.4696 29.55C9.37322 28.4899 6.79853 26.3527 5.18304 23.5593ZM10.1473 10.0968H5.18304C6.79853 7.30337 9.37322 5.16621 12.4696 4.10604C11.4599 5.97396 10.6858 7.99332 10.1473 10.0968ZM16.828 30.2232C15.4313 28.2038 14.3375 25.9657 13.6139 23.5593H20.0422C19.3186 25.9657 18.2248 28.2038 16.828 30.2232ZM20.7658 20.1937H12.8903C12.7388 19.083 12.621 17.9724 12.621 16.828C12.621 15.6837 12.7388 14.5563 12.8903 13.4624H20.7658C20.9173 14.5563 21.0351 15.6837 21.0351 16.828C21.0351 17.9724 20.9173 19.083 20.7658 20.1937ZM21.1865 29.55C22.1962 27.6821 22.9703 25.6628 23.5088 23.5593H28.4731C26.8576 26.3359 24.2829 28.4899 21.1865 29.55ZM24.1651 20.1937C24.2997 19.083 24.4007 17.9724 24.4007 16.828C24.4007 15.6837 24.2997 14.5731 24.1651 13.4624H29.853C30.1222 14.5394 30.2905 15.6669 30.2905 16.828C30.2905 17.9892 30.1222 19.1167 29.853 20.1937H24.1651Z" fill="#367CB3"/>
</svg>
