<svg width="24" height="24" viewBox="0 0 24 24" fill="none" xmlns="http://www.w3.org/2000/svg">
<path d="M16.9688 9.9375C14.1957 9.9375 11.7928 11.5513 10.649 13.8889L6.9818 12.5842C7.01377 12.3941 7.03125 12.1991 7.03125 12C7.03125 11.2736 6.80977 10.5979 6.43078 10.037L10.0597 6.44545C10.6162 6.8152 11.2832 7.03125 12 7.03125C13.9385 7.03125 15.5156 5.45414 15.5156 3.51562C15.5156 1.57711 13.9385 0 12 0C10.0615 0 8.48438 1.57711 8.48438 3.51562C8.48438 4.22991 8.69902 4.89469 9.06642 5.45002L5.42714 9.0518C4.87645 8.69348 4.2202 8.48438 3.51562 8.48438C1.57711 8.48438 0 10.0615 0 12C0 13.9385 1.57711 15.5156 3.51562 15.5156C4.75617 15.5156 5.84784 14.8692 6.47377 13.896L10.1608 15.2078C10.0151 15.7708 9.9375 16.3609 9.9375 16.9688C9.9375 20.8458 13.0917 24 16.9688 24C20.8458 24 24 20.8458 24 16.9688C24 13.0917 20.8458 9.9375 16.9688 9.9375ZM16.9688 13.4062C18.5196 13.4062 19.7812 14.6679 19.7812 16.2188C19.7812 17.7696 18.5196 19.0312 16.9688 19.0312C15.4179 19.0312 14.1562 17.7696 14.1562 16.2188C14.1562 14.6679 15.4179 13.4062 16.9688 13.4062ZM16.9688 22.5938C15.2729 22.5938 13.75 21.8394 12.7178 20.6487C12.9403 20.01 13.3034 19.4368 13.7691 18.9652C14.5434 19.866 15.6905 20.4375 16.9688 20.4375C18.247 20.4375 19.3941 19.866 20.1684 18.9652C20.6341 19.4368 20.9972 20.0099 21.2197 20.6486C20.1875 21.8394 18.6646 22.5938 16.9688 22.5938Z" fill="#367CB3"/>
</svg>
