<svg width="25" height="24" viewBox="0 0 25 24" fill="none" xmlns="http://www.w3.org/2000/svg">
<path d="M12.6924 0C6.06838 0 0.692383 5.376 0.692383 12C0.692383 18.624 6.06838 24 12.6924 24C19.3164 24 24.6924 18.624 24.6924 12C24.6924 5.376 19.3164 0 12.6924 0ZM13.8924 20.4H11.4924V18H13.8924V20.4ZM16.3764 11.1L15.2964 12.204C14.4324 13.08 13.8924 13.8 13.8924 15.6H11.4924V15C11.4924 13.68 12.0324 12.48 12.8964 11.604L14.3844 10.092C14.8284 9.66 15.0924 9.06 15.0924 8.4C15.0924 7.08 14.0124 6 12.6924 6C11.3724 6 10.2924 7.08 10.2924 8.4H7.89238C7.89238 5.748 10.0404 3.6 12.6924 3.6C15.3444 3.6 17.4924 5.748 17.4924 8.4C17.4924 9.456 17.0604 10.416 16.3764 11.1Z" fill="#414141"/>
</svg>
