<svg width="24" height="25" viewBox="0 0 24 25" fill="none" xmlns="http://www.w3.org/2000/svg">
<path d="M18.6667 0.181641H2.66667C1.18667 0.181641 0 1.38164 0 2.84831V21.515C0 22.9816 1.18667 24.1816 2.66667 24.1816H21.3333C22.8 24.1816 24 22.9816 24 21.515V5.51497L18.6667 0.181641ZM12 21.515C9.78667 21.515 8 19.7283 8 17.515C8 15.3016 9.78667 13.515 12 13.515C14.2133 13.515 16 15.3016 16 17.515C16 19.7283 14.2133 21.515 12 21.515ZM16 8.18164H2.66667V2.84831H16V8.18164Z" fill="#367CB3"/>
</svg>
