<svg width="24" height="24" viewBox="0 0 24 24" fill="none" xmlns="http://www.w3.org/2000/svg">
<path d="M12 22.0002C10.8954 22.0002 10 21.1048 10 20.0002H14C14 21.1048 13.1046 22.0002 12 22.0002ZM20 19.0002H4V17.0002L6 16.0002V10.5002C5.94732 9.08935 6.26594 7.68935 6.924 6.44023C7.57904 5.28174 8.6987 4.45911 10 4.18023V2.00023H13.646C12.3464 3.45266 12.1295 5.57663 13.1087 7.26177C14.0879 8.94692 16.0406 9.81016 17.946 9.40023C17.981 9.75723 17.998 10.1272 17.998 10.5002V16.0002L19.998 17.0002V19.0002H20ZM17 8.00023C15.4097 7.99776 14.0977 6.75478 14.0093 5.16695C13.9209 3.57912 15.0869 2.19821 16.6671 2.01928C18.2473 1.84035 19.6926 2.92557 19.9615 4.49296C20.2304 6.06034 19.2295 7.56523 17.68 7.92323C17.457 7.97446 17.2288 8.00029 17 8.00023Z" fill="#367CB3"/>
</svg>
